{
	"asset":{
		"generator":"Khronos glTF Blender I/O v4.2.70",
		"version":"2.0"
	},
	"scene":0,
	"scenes":[
		{
			"name":"Scene",
			"nodes":[
				15
			]
		}
	],
	"nodes":[
		{
			"mesh":0,
			"name":"Object_13"
		},
		{
			"children":[
				0
			],
			"name":"Chainmail.001",
			"rotation":[
				-0.70710688829422,
				0,
				0,
				0.7071066498756409
			],
			"scale":[
				209.59251403808594,
				209.59249877929688,
				209.59249877929688
			],
			"translation":[
				0,
				0,
				-22.34878158569336
			]
		},
		{
			"mesh":1,
			"name":"Object_5"
		},
		{
			"children":[
				2
			],
			"name":"Circle",
			"rotation":[
				-0.70710688829422,
				0,
				0,
				0.7071066498756409
			],
			"scale":[
				1070.138427734375,
				1070.1383056640625,
				1070.1383056640625
			]
		},
		{
			"mesh":2,
			"name":"Object_7",
			"translation":[
				0,
				-3.577978350222111e-05,
				0
			]
		},
		{
			"children":[
				4
			],
			"name":"Helmet.001",
			"rotation":[
				0.010702317580580711,
				-7.540795195382088e-05,
				-0.0012339858803898096,
				0.9999419450759888
			],
			"scale":[
				3.246151924133301,
				3.24615216255188,
				3.2461514472961426
			],
			"translation":[
				-4.299783706665039,
				890.7913208007812,
				27.635684967041016
			]
		},
		{
			"mesh":3,
			"name":"Object_15"
		},
		{
			"children":[
				6
			],
			"name":"Plate Armor.001",
			"rotation":[
				-0.70710688829422,
				0,
				0,
				0.7071066498756409
			],
			"scale":[
				0.13176752626895905,
				0.13176751136779785,
				0.13176751136779785
			]
		},
		{
			"mesh":4,
			"name":"Object_9"
		},
		{
			"children":[
				8
			],
			"name":"Skirt.001",
			"rotation":[
				-0.70710688829422,
				0,
				0,
				0.7071066498756409
			],
			"scale":[
				100,
				99.99999237060547,
				99.99999237060547
			]
		},
		{
			"mesh":5,
			"name":"Object_11"
		},
		{
			"children":[
				10
			],
			"name":"Sword_Cylinder.001",
			"rotation":[
				0.18988899886608124,
				-0.15467417240142822,
				0.15458092093467712,
				0.9571431279182434
			],
			"scale":[
				100.00000762939453,
				100,
				100
			],
			"translation":[
				76.30744171142578,
				2740.549560546875,
				-1401.6910400390625
			]
		},
		{
			"children":[
				1,
				3,
				5,
				7,
				9,
				11
			],
			"name":"RootNode"
		},
		{
			"children":[
				12
			],
			"name":"Object_2"
		},
		{
			"children":[
				13
			],
			"name":"c2f3e0734d2e4cbaab2f29901b661309.fbx",
			"rotation":[
				0.70710688829422,
				0,
				0,
				0.7071066498756409
			]
		},
		{
			"children":[
				14
			],
			"name":"Sketchfab_model",
			"rotation":[
				-0.70710688829422,
				0,
				0,
				0.7071066498756409
			],
			"scale":[
				0.04710518196225166,
				0.04710518941283226,
				0.04710518941283226
			]
		}
	],
	"materials":[
		{
			"name":"Mat_Chainmail",
			"pbrMetallicRoughness":{
				"roughnessFactor":0.6907393336296082
			}
		},
		{
			"name":"Mat_Circle",
			"pbrMetallicRoughness":{
				"metallicFactor":0.8736661672592163,
				"roughnessFactor":0.20903201401233673
			}
		},
		{
			"doubleSided":true,
			"name":"Mat_Helmet",
			"pbrMetallicRoughness":{
				"roughnessFactor":0.8248856663703918
			}
		},
		{
			"name":"Mat_PlateArmor",
			"pbrMetallicRoughness":{
				"roughnessFactor":0.7700076103210449
			}
		},
		{
			"doubleSided":true,
			"name":"Mat_Skirt"
		},
		{
			"name":"Mat_Sword"
		}
	],
	"meshes":[
		{
			"name":"Object_4",
			"primitives":[
				{
					"attributes":{
						"POSITION":0,
						"NORMAL":1,
						"TEXCOORD_0":2
					},
					"indices":3,
					"material":0
				}
			]
		},
		{
			"name":"Object_0",
			"primitives":[
				{
					"attributes":{
						"POSITION":4,
						"NORMAL":5,
						"TEXCOORD_0":6
					},
					"indices":7,
					"material":1
				}
			]
		},
		{
			"name":"Object_1",
			"primitives":[
				{
					"attributes":{
						"POSITION":8,
						"NORMAL":9,
						"TEXCOORD_0":10
					},
					"indices":11,
					"material":2
				}
			]
		},
		{
			"name":"Object_5",
			"primitives":[
				{
					"attributes":{
						"POSITION":12,
						"NORMAL":13,
						"TEXCOORD_0":14
					},
					"indices":15,
					"material":3
				}
			]
		},
		{
			"name":"Object_2",
			"primitives":[
				{
					"attributes":{
						"POSITION":16,
						"NORMAL":17,
						"TEXCOORD_0":18
					},
					"indices":19,
					"material":4
				}
			]
		},
		{
			"name":"Object_3",
			"primitives":[
				{
					"attributes":{
						"POSITION":20,
						"NORMAL":21,
						"TEXCOORD_0":22
					},
					"indices":23,
					"material":5
				}
			]
		}
	],
	"accessors":[
		{
			"bufferView":0,
			"componentType":5126,
			"count":1825,
			"max":[
				2.2223563194274902,
				1.089390516281128,
				9.508535385131836
			],
			"min":[
				-2.4396591186523438,
				-3.208102226257324,
				0.0016298294067382812
			],
			"type":"VEC3"
		},
		{
			"bufferView":1,
			"componentType":5126,
			"count":1825,
			"type":"VEC3"
		},
		{
			"bufferView":2,
			"componentType":5126,
			"count":1825,
			"type":"VEC2"
		},
		{
			"bufferView":3,
			"componentType":5123,
			"count":8328,
			"type":"SCALAR"
		},
		{
			"bufferView":4,
			"componentType":5126,
			"count":357,
			"max":[
				0.9323958158493042,
				0.9719534516334534,
				0.04095166176557541
			],
			"min":[
				-0.971649169921875,
				-0.9323958158493042,
				-0.10000000149011612
			],
			"type":"VEC3"
		},
		{
			"bufferView":5,
			"componentType":5126,
			"count":357,
			"type":"VEC3"
		},
		{
			"bufferView":6,
			"componentType":5126,
			"count":357,
			"type":"VEC2"
		},
		{
			"bufferView":7,
			"componentType":5123,
			"count":630,
			"type":"SCALAR"
		},
		{
			"bufferView":8,
			"componentType":5126,
			"count":2549,
			"max":[
				110.69822692871094,
				536.7529296875,
				82.98812103271484
			],
			"min":[
				-124.24789428710938,
				-27.616127014160156,
				-217.69009399414062
			],
			"type":"VEC3"
		},
		{
			"bufferView":9,
			"componentType":5126,
			"count":2549,
			"type":"VEC3"
		},
		{
			"bufferView":10,
			"componentType":5126,
			"count":2549,
			"type":"VEC2"
		},
		{
			"bufferView":11,
			"componentType":5123,
			"count":13698,
			"type":"SCALAR"
		},
		{
			"bufferView":12,
			"componentType":5126,
			"count":12821,
			"max":[
				3715.7421875,
				2214.15185546875,
				16670.416015625
			],
			"min":[
				-4155.8046875,
				-4997.412109375,
				-114.9814453125
			],
			"type":"VEC3"
		},
		{
			"bufferView":13,
			"componentType":5126,
			"count":12821,
			"type":"VEC3"
		},
		{
			"bufferView":14,
			"componentType":5126,
			"count":12821,
			"type":"VEC2"
		},
		{
			"bufferView":15,
			"componentType":5123,
			"count":36684,
			"type":"SCALAR"
		},
		{
			"bufferView":16,
			"componentType":5126,
			"count":15528,
			"max":[
				3.486691951751709,
				3.4452953338623047,
				15.067364692687988
			],
			"min":[
				-5.245453834533691,
				-2.3073742389678955,
				1.152605652809143
			],
			"type":"VEC3"
		},
		{
			"bufferView":17,
			"componentType":5126,
			"count":15528,
			"type":"VEC3"
		},
		{
			"bufferView":18,
			"componentType":5126,
			"count":15528,
			"type":"VEC2"
		},
		{
			"bufferView":19,
			"componentType":5123,
			"count":47874,
			"type":"SCALAR"
		},
		{
			"bufferView":20,
			"componentType":5126,
			"count":773,
			"max":[
				2.719170093536377,
				0.7808657288551331,
				24.945606231689453
			],
			"min":[
				-2.7632620334625244,
				-0.7645822167396545,
				0.0013042663922533393
			],
			"type":"VEC3"
		},
		{
			"bufferView":21,
			"componentType":5126,
			"count":773,
			"type":"VEC3"
		},
		{
			"bufferView":22,
			"componentType":5126,
			"count":773,
			"type":"VEC2"
		},
		{
			"bufferView":23,
			"componentType":5123,
			"count":3852,
			"type":"SCALAR"
		}
	],
	"bufferViews":[
		{
			"buffer":0,
			"byteLength":21900,
			"byteOffset":0,
			"target":34962
		},
		{
			"buffer":0,
			"byteLength":21900,
			"byteOffset":21900,
			"target":34962
		},
		{
			"buffer":0,
			"byteLength":14600,
			"byteOffset":43800,
			"target":34962
		},
		{
			"buffer":0,
			"byteLength":16656,
			"byteOffset":58400,
			"target":34963
		},
		{
			"buffer":0,
			"byteLength":4284,
			"byteOffset":75056,
			"target":34962
		},
		{
			"buffer":0,
			"byteLength":4284,
			"byteOffset":79340,
			"target":34962
		},
		{
			"buffer":0,
			"byteLength":2856,
			"byteOffset":83624,
			"target":34962
		},
		{
			"buffer":0,
			"byteLength":1260,
			"byteOffset":86480,
			"target":34963
		},
		{
			"buffer":0,
			"byteLength":30588,
			"byteOffset":87740,
			"target":34962
		},
		{
			"buffer":0,
			"byteLength":30588,
			"byteOffset":118328,
			"target":34962
		},
		{
			"buffer":0,
			"byteLength":20392,
			"byteOffset":148916,
			"target":34962
		},
		{
			"buffer":0,
			"byteLength":27396,
			"byteOffset":169308,
			"target":34963
		},
		{
			"buffer":0,
			"byteLength":153852,
			"byteOffset":196704,
			"target":34962
		},
		{
			"buffer":0,
			"byteLength":153852,
			"byteOffset":350556,
			"target":34962
		},
		{
			"buffer":0,
			"byteLength":102568,
			"byteOffset":504408,
			"target":34962
		},
		{
			"buffer":0,
			"byteLength":73368,
			"byteOffset":606976,
			"target":34963
		},
		{
			"buffer":0,
			"byteLength":186336,
			"byteOffset":680344,
			"target":34962
		},
		{
			"buffer":0,
			"byteLength":186336,
			"byteOffset":866680,
			"target":34962
		},
		{
			"buffer":0,
			"byteLength":124224,
			"byteOffset":1053016,
			"target":34962
		},
		{
			"buffer":0,
			"byteLength":95748,
			"byteOffset":1177240,
			"target":34963
		},
		{
			"buffer":0,
			"byteLength":9276,
			"byteOffset":1272988,
			"target":34962
		},
		{
			"buffer":0,
			"byteLength":9276,
			"byteOffset":1282264,
			"target":34962
		},
		{
			"buffer":0,
			"byteLength":6184,
			"byteOffset":1291540,
			"target":34962
		},
		{
			"buffer":0,
			"byteLength":7704,
			"byteOffset":1297724,
			"target":34963
		}
	],
	"buffers":[
		{
			"byteLength":1305428,
			"uri":"scene.bin"
		}
	]
}
