# Blender 4.3.1
# www.blender.org
mtllib AutoShotgun.mtl
o AutoShotgun
v -0.500000 2.658196 0.700000
v -0.500000 2.058197 0.700000
v -0.500000 2.158196 -0.600000
v -0.500000 1.558197 -0.600000
v 0.300000 -1.468197 -0.600000
v 0.300000 -0.441803 -0.600000
v -0.300000 -1.468197 -0.600000
v -0.300000 -0.441803 -0.600000
v 0.500000 2.158196 -0.600000
v -0.300000 2.229992 -0.413331
v -0.300000 2.586401 0.513331
v 0.500000 2.658196 0.700000
v 0.300000 2.229992 -0.413331
v 0.300000 2.586401 0.513331
v 0.500000 2.058197 0.700000
v 0.150000 2.369702 0.700000
v -0.150000 2.369702 0.700000
v -0.150000 2.058197 0.700000
v 0.150000 2.058197 0.700000
v 0.400000 0.458197 -0.200000
v 0.500000 0.258197 -0.200000
v 0.400000 0.458197 0.300000
v 0.500000 0.258197 0.300000
v 0.400000 0.058197 -0.200000
v 0.400000 0.058197 0.300000
v -0.400000 0.458197 0.300000
v -0.500000 0.258197 0.300000
v -0.400000 0.458197 -0.200000
v -0.500000 0.258197 -0.200000
v -0.400000 0.058197 0.300000
v -0.400000 0.058197 -0.200000
v 0.150000 0.569702 0.700000
v -0.150000 0.569702 0.700000
v 0.150000 0.569702 0.800000
v -0.150000 0.569702 0.800000
v 0.150000 2.369702 0.800000
v -0.150000 2.369702 0.800000
v 0.150000 -0.091803 1.200000
v 0.150000 -1.391803 1.200000
v -0.150000 -0.091803 1.200000
v -0.150000 -1.391803 1.200000
v -0.150000 0.158197 0.700000
v 0.150000 0.158197 0.700000
v 0.150000 -1.237295 0.950000
v 0.150000 -0.246312 0.950000
v -0.150000 -1.237295 0.950000
v -0.150000 -0.246312 0.950000
v -0.300000 -0.441803 0.200000
v -0.300000 -2.341803 0.200000
v -0.500000 -0.441803 0.200000
v -0.300000 -2.541803 0.200000
v -0.500000 -2.341803 0.200000
v 0.300000 -2.541803 0.200000
v 0.300000 -2.341803 0.200000
v 0.300000 -0.441803 0.200000
v 0.500000 -2.341803 0.200000
v 0.500000 -0.441803 0.200000
v 0.300000 -1.368197 -0.350000
v -0.300000 -1.368197 -0.350000
v 0.300000 -0.441803 -0.350000
v -0.300000 -0.441803 -0.350000
v 0.150000 -0.121312 0.700000
v -0.150000 -0.121312 0.700000
v -0.150000 -1.362295 0.700000
v 0.150000 -1.362295 0.700000
v 0.150000 -1.641803 0.700000
v -0.150000 -1.641803 0.700000
v 0.500000 1.558197 -0.600000
v -0.300000 -0.441803 0.700000
v -0.300000 -2.041803 0.700000
v -0.300000 -2.341803 0.450000
v 0.300000 -2.041803 0.700000
v 0.300000 -2.341803 0.450000
v 0.500000 1.458197 0.400000
v 0.500000 -0.441803 0.700000
v 0.500000 1.458197 -0.300000
v 0.500000 -0.041803 0.400000
v 0.500000 -0.441803 -0.600000
v 0.500000 -0.041803 -0.300000
v 0.500000 -0.441803 -0.100000
v 0.500000 -2.341803 -0.100000
v 0.300000 0.458197 0.300000
v 0.300000 0.058197 0.300000
v 0.300000 0.058197 -0.200000
v 0.300000 0.458197 -0.200000
v -0.300000 0.458197 0.300000
v -0.300000 0.058197 0.300000
v -0.300000 0.058197 -0.200000
v -0.300000 0.458197 -0.200000
v 0.300000 -0.441803 0.700000
v -0.500000 -0.441803 0.700000
v -0.500000 -2.341803 -0.100000
v -0.300000 -2.541803 -0.100000
v 0.300000 -2.541803 -0.100000
v 0.300000 -2.218196 -0.100000
v -0.300000 -2.218196 -0.100000
v -0.300000 -1.268196 -0.100000
v 0.300000 -1.268196 -0.100000
v -0.500000 -0.441803 -0.100000
v -0.500000 -0.441803 -0.600000
v -0.500000 1.458197 0.400000
v -0.500000 1.458197 -0.300000
v -0.500000 -0.041803 -0.300000
v -0.500000 -0.041803 0.400000
v -0.300000 1.929992 0.513331
v -0.300000 1.929992 -0.413331
v 0.300000 1.929992 0.513331
v 0.300000 1.929992 -0.413331
v -0.100000 1.929992 -0.213331
v -0.100000 1.929992 0.313331
v 0.100000 1.929992 -0.213331
v 0.100000 1.929992 0.313331
v -0.100000 1.429992 -0.213331
v 0.100000 1.429992 -0.213331
v -0.100000 1.429992 0.313331
v 0.100000 1.429992 0.313331
v 0.300000 1.458197 -0.300000
v 0.300000 -0.041803 -0.300000
v 0.300000 1.458197 0.400000
v 0.300000 -0.041803 0.400000
v -0.300000 1.458197 -0.300000
v -0.300000 1.458197 0.400000
v -0.300000 -0.041803 -0.300000
v -0.300000 -0.041803 0.400000
v -0.300000 -1.708197 -1.200000
v 0.300000 -1.708197 -1.200000
v 0.300000 -2.658196 -1.200000
v -0.300000 -2.658196 -1.200000
vn -1.0000 -0.0000 -0.0000
vn -0.0000 -0.0000 -1.0000
vn -0.0000 0.9333 -0.3590
vn -0.0000 -0.0000 1.0000
vn 0.8944 0.4472 -0.0000
vn 0.8944 -0.4472 -0.0000
vn -0.8944 0.4472 -0.0000
vn -0.8944 -0.4472 -0.0000
vn -0.0000 -1.0000 -0.0000
vn 1.0000 -0.0000 -0.0000
vn -0.0000 1.0000 -0.0000
vn -0.0000 0.8944 0.4472
vn -0.0000 0.3827 -0.9239
vn -0.0000 -0.3827 -0.9239
vn -0.2706 0.2706 -0.9239
vn -0.0000 -0.8944 -0.4472
vn -0.0000 0.8944 -0.4472
vn -0.0000 -0.8944 0.4472
vn -0.0000 -0.6402 0.7682
vn 0.9950 -0.0995 -0.0000
vn -0.7071 -0.7071 -0.0000
vn 0.7071 -0.7071 -0.0000
vn 0.1961 -0.9806 -0.0000
vn -0.0000 -0.0000 -0.0000
vn 0.9239 -0.2706 0.2706
vn 0.9239 -0.3827 -0.0000
vn 0.9239 0.3827 -0.0000
vn -0.9239 -0.2706 -0.2706
vn -0.9239 -0.3827 -0.0000
vn -0.9239 0.3827 -0.0000
vn 0.2706 -0.2706 -0.9239
vn -0.0000 0.9285 -0.3714
vn -0.0000 -0.9285 0.3714
vt -8.496837 -2.362205
vt -8.103136 2.755906
vt -10.465340 2.755906
vt -6.134632 -2.362205
vt -1.181102 5.780302
vt 1.181102 1.739383
vt 1.181102 5.780302
vt -1.181102 1.739383
vt 1.968504 0.845433
vt 1.181102 1.632835
vt -1.968504 0.845433
vt 1.968504 6.329051
vt 1.181102 5.541649
vt -1.968504 6.329051
vt -1.181102 1.632835
vt -1.181102 5.541649
vt -1.968504 -10.465340
vt -0.590551 -9.329534
vt -1.968504 -8.103136
vt 1.968504 -10.465340
vt 0.590551 -9.329534
vt 0.590551 -8.103136
vt 1.968504 -8.103136
vt -0.590551 -8.103136
vt 0.909205 1.181102
vt 0.028863 -0.787402
vt 0.909205 -0.787402
vt 0.028863 1.181102
vt 1.789547 1.181102
vt 1.789547 -0.787402
vt -0.909205 -0.787402
vt -0.028863 1.181102
vt -0.909205 1.181102
vt -0.028863 -0.787402
vt -1.789547 -0.787402
vt -1.789547 1.181102
vt 0.590551 3.149606
vt -0.590551 2.755906
vt 0.590551 2.755906
vt -0.590551 3.149606
vt 2.242919 3.149606
vt 9.329534 2.755906
vt 9.329534 3.149606
vt 8.103136 2.755906
vt 2.242919 2.755906
vt -9.329534 3.149606
vt -9.329534 2.755906
vt -2.242919 3.149606
vt -2.242919 2.755906
vt -0.590551 -2.242919
vt 0.590551 -2.242919
vt 0.590551 0.361431
vt -0.590551 5.479541
vt -0.590551 0.361431
vt 0.590551 5.479541
vt 0.590551 4.387277
vt -0.590551 2.186423
vt 0.590551 2.186423
vt -0.590551 4.387277
vt -0.590551 4.871240
vt 0.590551 0.969732
vt 0.590551 4.871240
vt -0.590551 0.969732
vt 1.968504 1.739383
vt 1.181102 9.219698
vt 1.181102 10.007100
vt 1.968504 9.219698
vt -1.181102 10.007100
vt -1.181102 9.219698
vt -1.968504 9.219698
vt -1.968504 1.739383
vt 1.181102 5.386601
vt -1.181102 5.386601
vt 0.590551 3.778976
vt -0.590551 2.678549
vt 0.590551 2.678549
vt -0.590551 3.778976
vt 0.590551 1.166814
vt -0.590551 0.066387
vt 0.590551 0.066387
vt -0.590551 1.166814
vt -5.386601 -1.377953
vt -1.739383 -2.362205
vt -1.739383 -1.377953
vt -5.780302 -2.362205
vt 0.590551 1.775115
vt -0.590551 -0.425739
vt 0.590551 -0.425739
vt -0.590551 1.775115
vt -1.968504 -6.134632
vt 1.968504 -8.496837
vt 1.968504 -6.134632
vt -1.968504 -8.496837
vt 5.780302 -2.362205
vt 1.739383 -1.377953
vt 1.739383 -2.362205
vt 5.386601 -1.377953
vt 8.496837 -2.362205
vt 10.465340 2.755906
vt 6.134632 -2.362205
vt 1.739383 0.787402
vt 8.038596 2.755906
vt 1.739383 2.755906
vt 9.219698 0.787402
vt 9.219698 1.771654
vt -1.181102 -4.411133
vt 1.181102 -5.948584
vt 1.181102 -4.411133
vt -1.181102 -5.948584
vt 1.181102 1.771654
vt -1.181102 0.787402
vt 1.181102 0.787402
vt -1.181102 1.771654
vt 5.740932 1.574803
vt -1.739383 2.755906
vt 5.740932 -1.181102
vt -0.164580 1.574803
vt -0.164580 -1.181102
vt -1.739383 0.787402
vt -1.739383 -0.393701
vt -9.219698 0.787402
vt -9.219698 -0.393701
vt -1.574803 -1.803924
vt -1.574803 -0.229120
vt -1.968504 -1.016522
vt -1.181102 -1.803924
vt -1.181102 -0.229120
vt 1.574803 1.181102
vt 1.181102 -0.787402
vt 1.574803 -0.787402
vt 1.181102 1.181102
vt 1.574803 -0.229120
vt 1.574803 -1.803924
vt 1.968504 -1.016522
vt 1.181102 -0.229120
vt 1.181102 -1.803924
vt -1.181102 1.181102
vt -1.574803 -0.787402
vt -1.181102 -0.787402
vt -1.574803 1.181102
vt -8.038596 2.755906
vt -9.219698 1.771654
vt -1.181102 2.755906
vt -1.968504 0.787402
vt -1.968504 2.755906
vt 6.240923 -0.393701
vt 5.127369 0.787402
vt 5.127369 -0.393701
vt 6.240923 0.787402
vt -6.240923 0.787402
vt -5.127369 -0.393701
vt -5.127369 0.787402
vt -6.240923 -0.393701
vt -1.181102 -0.393701
vt 1.181102 -0.393701
vt 1.968504 2.755906
vt 1.968504 0.787402
vt 1.181102 2.755906
vt 1.181102 8.733057
vt -1.181102 8.733057
vt -1.181102 4.992900
vt 1.181102 4.992900
vt 1.968504 -0.393701
vt 1.181102 -2.362205
vt 1.968504 -2.362205
vt 1.181102 -1.377953
vt -1.181102 -1.377953
vt -1.968504 -0.393701
vt -1.968504 -2.362205
vt -1.181102 -2.362205
vt -5.740932 -1.181102
vt -5.740932 1.574803
vt 0.164580 -1.181102
vt 0.164580 1.574803
vt 1.739383 -0.393701
vt 9.219698 -0.393701
vt -1.181102 8.038596
vt -0.590551 -0.622821
vt 0.590551 -0.622821
vt 0.590551 0.477606
vt 0.590551 5.363366
vt 0.590551 6.463793
vt -0.590551 6.463793
vt 1.181102 8.038596
vt -0.590551 0.477606
vt -0.590551 5.363366
vt 7.598395 2.020988
vt 8.779498 -1.627287
vt 10.182680 2.020988
vt 7.598395 -1.627287
vt -8.779498 -1.627287
vt -7.598395 2.020988
vt -10.182680 2.020988
vt -7.598395 -1.627287
vt 1.181102 -7.598395
vt -1.181102 -10.182680
vt 1.181102 -10.182680
vt -1.181102 -7.598395
vt 1.181102 -8.779498
vt -1.181102 -8.779498
vt -0.361431 4.724410
vt -0.477606 2.755906
vt 0.622821 2.755906
vt -0.969732 3.740157
vt -5.479541 4.724410
vt -4.871240 3.740157
vt -5.363366 2.755906
vt -6.463793 2.755906
vt 0.477606 2.755906
vt 0.361431 4.724410
vt -0.622821 2.755906
vt 0.969732 3.740157
vt 5.479541 4.724410
vt 4.871240 3.740157
vt 5.363366 2.755906
vt 6.463793 2.755906
vt 1.181102 2.020988
vt 0.393701 -0.839885
vt 1.181102 -1.627287
vt 0.393701 1.233586
vt -1.181102 2.020988
vt -0.393701 -0.839885
vt -1.181102 -1.627287
vt -0.393701 1.233586
vt -0.393701 -5.629891
vt 0.393701 -7.598395
vt 0.393701 -5.629891
vt -0.393701 -7.598395
vt -1.181102 -5.740932
vt -1.968504 0.164580
vt -1.968504 -5.740932
vt -1.181102 0.164580
vt 1.968504 1.574803
vt 1.181102 -1.181102
vt 1.968504 -1.181102
vt 1.181102 1.574803
vt 1.181102 0.164580
vt 1.968504 -5.740932
vt 1.968504 0.164580
vt 1.181102 -5.740932
vt 1.803924 1.181102
vt 1.803924 -0.787402
vt 0.229120 1.181102
vt 0.229120 -0.787402
vt -1.181102 1.574803
vt -1.968504 -1.181102
vt -1.181102 -1.181102
vt -1.968504 1.574803
vt -1.803924 -0.787402
vt -1.803924 1.181102
vt -0.229120 -0.787402
vt -0.229120 1.181102
vt -5.629891 -0.839885
vt -7.598395 1.233586
vt -7.598395 -0.839885
vt -5.629891 1.233586
vt 5.629891 1.233586
vt 7.598395 -0.839885
vt 7.598395 1.233586
vt 5.629891 -0.839885
vt 1.181102 -4.340002
vt -1.181102 -6.884174
vt 1.181102 -6.884174
vt -1.181102 -4.340002
vt 1.181102 -3.608918
vt -1.181102 -8.273234
vt 1.181102 -8.273234
vt -1.181102 -3.608918
vt -1.181102 10.465340
vt 1.181102 6.725183
vt 1.181102 10.465340
vt -1.181102 6.725183
vt 8.733057 -0.393701
vt 4.992900 -0.393701
vt 6.725183 -4.724410
vt 10.465340 -4.724410
vt 1.181102 -2.219858
vt -1.181102 -3.279930
vt 1.181102 -3.279930
vt -1.181102 -2.219858
vt -8.733057 -0.393701
vt -4.992900 -0.393701
vt -6.725183 -4.724410
vt -10.465340 -4.724410
s 1
usemtl metal.001
f 3/1/1 2/2/1 1/3/1
f 2/2/1 3/1/1 4/4/1
f 7/5/2 6/6/2 5/7/2
f 6/6/2 7/5/2 8/8/2
f 3/9/3 10/10/3 9/11/3
f 10/10/3 3/9/3 1/12/3
f 10/10/3 1/12/3 11/13/3
f 11/13/3 1/12/3 12/14/3
f 9/11/3 13/15/3 12/14/3
f 13/15/3 9/11/3 10/10/3
f 12/14/3 13/15/3 14/16/3
f 12/14/3 14/16/3 11/13/3
f 12/17/4 16/18/4 15/19/4
f 16/18/4 12/17/4 1/20/4
f 16/18/4 1/20/4 17/21/4
f 17/21/4 1/20/4 18/22/4
f 18/22/4 1/20/4 2/23/4
f 19/24/4 15/19/4 16/18/4
f 22/25/5 21/26/5 20/27/5
f 21/26/5 22/25/5 23/28/5
f 23/29/6 24/27/6 21/30/6
f 24/27/6 23/29/6 25/25/6
f 28/31/7 27/32/7 26/33/7
f 27/32/7 28/31/7 29/34/7
f 29/35/8 30/33/8 27/36/8
f 30/33/8 29/35/8 31/31/8
f 34/37/9 33/38/9 32/39/9
f 33/38/9 34/37/9 35/40/9
f 34/41/10 16/42/10 36/43/10
f 16/42/10 34/41/10 19/44/10
f 19/44/10 34/41/10 32/45/10
f 18/2/1 37/46/1 17/47/1
f 37/46/1 18/2/1 35/48/1
f 35/48/1 18/2/1 33/49/1
f 37/21/4 34/50/4 36/18/4
f 34/50/4 37/21/4 35/51/4
f 17/39/11 36/40/11 16/38/11
f 36/40/11 17/39/11 37/37/11
f 40/52/4 39/53/4 38/54/4
f 39/53/4 40/52/4 41/55/4
f 40/56/12 43/57/12 42/58/12
f 43/57/12 40/56/12 38/59/12
f 46/60/2 45/61/2 44/62/2
f 45/61/2 46/60/2 47/63/2
f 50/64/4 49/65/4 48/6/4
f 49/65/4 50/64/4 51/66/4
f 51/66/4 50/64/4 52/67/4
f 53/68/4 49/65/4 51/66/4
f 53/68/4 54/69/4 49/65/4
s 0
f 53/68/13 55/8/14 54/69/15
s 1
f 56/70/4 55/8/4 53/68/4
f 55/8/4 56/70/4 57/71/4
f 60/8/4 59/72/4 58/73/4
f 59/72/4 60/8/4 61/6/4
f 45/74/16 63/75/16 62/76/16
f 63/75/16 45/74/16 47/77/16
f 46/78/17 65/79/17 64/80/17
f 65/79/17 46/78/17 44/81/17
f 58/82/10 6/83/10 60/84/10
f 6/83/10 58/82/10 5/85/10
f 39/86/18 67/87/18 66/88/18
f 67/87/18 39/86/18 41/89/18
f 4/90/2 9/91/2 68/92/2
f 9/91/2 4/90/2 3/93/2
f 7/94/1 61/95/1 8/96/1
f 61/95/1 7/94/1 59/97/1
f 15/44/10 9/98/10 12/99/10
f 9/98/10 15/44/10 68/100/10
usemtl pink.001
f 48/101/1 70/102/1 69/103/1
f 70/102/1 48/101/1 49/104/1
f 70/102/1 49/104/1 71/105/1
f 70/106/19 73/107/19 72/108/19
f 73/107/19 70/106/19 71/109/19
f 73/110/9 49/111/9 54/112/9
f 49/111/9 73/110/9 71/113/9
f 15/44/10 74/114/10 68/100/10
f 74/114/10 15/44/10 75/115/10
f 68/100/10 74/114/10 76/116/10
f 74/114/10 75/115/10 77/117/10
f 76/116/10 78/83/10 68/100/10
f 78/83/10 77/117/10 75/115/10
f 78/83/10 76/116/10 79/118/10
f 78/83/10 79/118/10 77/117/10
s 0
f 78/83/1 75/115/1 57/119/1
f 78/83/20 57/119/20 80/120/20
s 1
f 56/121/10 80/120/10 57/119/10
f 80/120/10 56/121/10 81/122/10
f 22/123/4 25/124/4 23/125/4
f 25/124/4 22/123/4 82/126/4
f 25/124/4 82/126/4 83/127/4
f 25/128/9 84/129/9 24/130/9
f 84/129/9 25/128/9 83/131/9
f 24/132/2 20/133/2 21/134/2
f 20/133/2 24/132/2 84/135/2
f 20/133/2 84/135/2 85/136/2
f 82/137/11 20/138/11 85/139/11
f 20/138/11 82/137/11 22/140/11
f 26/133/4 87/135/4 86/136/4
f 87/135/4 26/133/4 30/132/4
f 30/132/4 26/133/4 27/134/4
f 87/137/9 31/138/9 88/139/9
f 31/138/9 87/137/9 30/140/9
f 26/128/11 89/129/11 28/130/11
f 89/129/11 26/128/11 86/131/11
f 88/127/2 28/123/2 89/126/2
f 28/123/2 88/127/2 31/124/2
f 28/123/2 31/124/2 29/125/2
f 72/141/10 55/119/10 90/115/10
f 55/119/10 72/141/10 54/121/10
f 54/121/10 72/141/10 73/142/10
f 69/143/9 50/144/9 48/111/9
f 50/144/9 69/143/9 91/145/9
f 93/146/21 52/147/21 92/148/21
f 52/147/21 93/146/21 51/149/21
f 53/150/22 81/151/22 56/152/22
f 81/151/22 53/150/22 94/153/22
f 53/112/9 93/154/9 94/155/9
f 93/154/9 53/112/9 51/111/9
f 75/156/9 55/112/9 57/157/9
f 55/112/9 75/156/9 90/158/9
f 93/68/2 95/159/2 94/66/2
f 95/159/2 93/68/2 96/160/2
f 96/160/2 93/68/2 92/70/2
f 96/160/2 92/70/2 97/161/2
s 0
f 98/162/1 94/66/1 95/159/1
s 1
f 80/64/2 94/66/2 98/162/2
f 94/66/2 80/64/2 81/67/2
f 80/64/2 98/162/2 99/71/2
f 99/71/2 98/162/2 97/161/2
f 99/71/2 97/161/2 92/70/2
f 80/163/9 6/164/9 78/165/9
f 6/164/9 80/163/9 60/166/9
f 60/166/9 80/163/9 61/167/9
f 99/168/9 61/167/9 80/163/9
f 100/169/9 61/167/9 99/168/9
f 61/167/9 100/169/9 8/170/9
f 4/4/1 102/171/1 101/172/1
f 102/171/1 4/4/1 100/96/1
f 102/171/1 100/96/1 103/173/1
f 101/172/1 2/2/1 4/4/1
f 2/2/1 101/172/1 91/103/1
f 91/103/1 103/173/1 100/96/1
f 91/103/1 101/172/1 104/174/1
f 91/103/1 104/174/1 103/173/1
s 0
f 91/103/9 100/96/9 99/175/9
f 91/103/23 99/175/23 50/101/23
s 1
f 50/101/1 99/175/1 92/176/1
f 50/101/1 92/176/1 52/104/1
f 19/24/4 75/71/4 15/19/4
f 75/71/4 19/24/4 90/8/4
f 90/8/4 19/24/4 72/177/4
f 72/177/4 19/24/4 43/178/4
s 0
f 43/178/24 19/24/24 32/50/24
s 1
f 43/178/4 32/50/4 42/179/4
f 42/179/4 32/50/4 33/51/4
s 0
f 42/179/25 33/51/26 63/180/27
f 63/180/28 33/51/29 64/181/30
f 64/181/31 33/51/14 67/182/13
s 1
f 66/183/4 72/177/4 43/178/4
f 72/177/4 66/183/4 70/184/4
f 70/184/4 66/183/4 67/182/4
f 70/184/4 67/182/4 33/51/4
s 0
f 66/183/1 43/178/1 62/185/1
f 66/183/1 62/185/1 65/186/1
s 1
f 63/180/4 65/186/4 62/185/4
f 65/186/4 63/180/4 64/181/4
f 70/184/4 33/51/4 69/6/4
f 33/51/4 2/23/4 69/6/4
f 2/23/4 33/51/4 18/22/4
f 69/6/4 2/23/4 91/64/4
f 6/6/2 68/92/2 78/64/2
f 68/92/2 6/6/2 4/90/2
f 4/90/2 6/6/2 8/8/2
f 4/90/2 8/8/2 100/71/2
usemtl darkMetal.001
f 105/187/10 10/188/10 11/189/10
f 10/188/10 105/187/10 106/190/10
f 13/191/1 107/192/1 14/193/1
f 107/192/1 13/191/1 108/194/1
f 107/195/2 11/196/2 14/197/2
f 11/196/2 107/195/2 105/198/2
f 10/199/4 108/198/4 13/200/4
f 108/198/4 10/199/4 106/195/4
f 38/201/10 62/202/10 43/203/10
f 62/202/10 38/201/10 45/204/10
f 45/204/10 38/201/10 39/205/10
f 45/204/10 39/205/10 44/206/10
f 44/206/10 39/205/10 65/207/10
f 65/207/10 39/205/10 66/208/10
f 63/209/1 40/210/1 42/211/1
f 40/210/1 63/209/1 47/212/1
f 40/210/1 47/212/1 41/213/1
f 41/213/1 47/212/1 46/214/1
f 41/213/1 46/214/1 64/215/1
f 41/213/1 64/215/1 67/216/1
usemtl dark.001
f 105/217/11 109/218/11 106/219/11
f 109/218/11 105/217/11 110/220/11
f 110/220/11 105/217/11 107/221/11
f 111/222/11 106/219/11 109/218/11
f 108/223/11 111/222/11 107/221/11
f 111/222/11 108/223/11 106/219/11
f 107/221/11 111/222/11 112/224/11
f 107/221/11 112/224/11 110/220/11
f 115/220/11 114/222/11 113/218/11
f 114/222/11 115/220/11 116/224/11
f 115/225/2 112/226/2 116/227/2
f 112/226/2 115/225/2 110/228/2
f 117/229/4 79/230/4 76/231/4
f 79/230/4 117/229/4 118/232/4
f 74/233/9 117/234/9 76/235/9
f 117/234/9 74/233/9 119/236/9
f 120/237/2 74/238/2 77/239/2
f 74/238/2 120/237/2 119/240/2
f 119/114/10 82/241/10 85/242/10
f 82/241/10 119/114/10 120/117/10
f 82/241/10 120/117/10 83/243/10
f 83/243/10 120/117/10 118/118/10
f 117/116/10 85/242/10 118/118/10
f 85/242/10 117/116/10 119/114/10
f 118/118/10 85/242/10 84/244/10
f 118/118/10 84/244/10 83/243/10
f 122/245/9 102/246/9 121/247/9
f 102/246/9 122/245/9 101/248/9
f 103/235/11 124/236/11 123/234/11
f 124/236/11 103/235/11 104/233/11
f 124/232/2 101/231/2 122/229/2
f 101/231/2 124/232/2 104/230/2
f 120/245/11 79/246/11 118/247/11
f 79/246/11 120/245/11 77/248/11
f 121/171/1 89/249/1 86/250/1
f 89/249/1 121/171/1 123/173/1
f 89/249/1 123/173/1 88/251/1
f 88/251/1 123/173/1 124/174/1
f 122/172/1 86/250/1 124/174/1
f 86/250/1 122/172/1 121/171/1
f 124/174/1 86/250/1 87/252/1
f 124/174/1 87/252/1 88/251/1
f 102/238/4 123/237/4 121/240/4
f 123/237/4 102/238/4 103/239/4
f 114/253/1 112/254/1 111/255/1
f 112/254/1 114/253/1 116/256/1
f 109/226/4 114/225/4 111/228/4
f 114/225/4 109/226/4 113/227/4
f 115/257/10 109/258/10 110/259/10
f 109/258/10 115/257/10 113/260/10
f 7/261/32 126/262/32 125/263/32
f 126/262/32 7/261/32 5/264/32
f 95/265/33 128/266/33 127/267/33
f 128/266/33 95/265/33 96/268/33
f 128/269/2 126/270/2 127/271/2
f 126/270/2 128/269/2 125/272/2
f 59/97/1 96/273/1 97/274/1
f 96/273/1 59/97/1 7/94/1
f 96/273/1 7/94/1 125/275/1
f 96/273/1 125/275/1 128/276/1
f 97/277/32 58/278/32 59/279/32
f 58/278/32 97/277/32 98/280/32
f 95/281/10 58/82/10 98/282/10
f 58/82/10 95/281/10 5/85/10
f 5/85/10 95/281/10 126/283/10
f 126/283/10 95/281/10 127/284/10
