# Blender 4.2.3 LTS
# www.blender.org
mtllib Bolt.mtl
o Cylinder
v 0.000000 1.000000 -0.032595
v 0.000000 -1.000000 -0.050000
v 0.006359 1.000000 -0.031968
v 0.009755 -1.000000 -0.049039
v 0.012473 1.000000 -0.030114
v 0.019134 -1.000000 -0.046194
v 0.018109 1.000000 -0.027102
v 0.027779 -1.000000 -0.041573
v 0.023048 1.000000 -0.023048
v 0.035355 -1.000000 -0.035355
v 0.027101 1.000000 -0.018109
v 0.041573 -1.000000 -0.027778
v 0.030114 1.000000 -0.012473
v 0.046194 -1.000000 -0.019134
v 0.031968 1.000000 -0.006359
v 0.049039 -1.000000 -0.009754
v 0.032595 1.000000 -0.000000
v 0.050000 -1.000000 0.000000
v 0.031968 1.000000 0.006359
v 0.049039 -1.000000 0.009755
v 0.030114 1.000000 0.012473
v 0.046194 -1.000000 0.019134
v 0.027101 1.000000 0.018109
v 0.041573 -1.000000 0.027779
v 0.023048 1.000000 0.023048
v 0.035355 -1.000000 0.035355
v 0.018109 1.000000 0.027101
v 0.027779 -1.000000 0.041574
v 0.012473 1.000000 0.030114
v 0.019134 -1.000000 0.046194
v 0.006359 1.000000 0.031968
v 0.009755 -1.000000 0.049039
v 0.000000 1.000000 0.032595
v 0.000000 -1.000000 0.050000
v -0.006359 1.000000 0.031968
v -0.009755 -1.000000 0.049039
v -0.012473 1.000000 0.030114
v -0.019134 -1.000000 0.046194
v -0.018109 1.000000 0.027101
v -0.027779 -1.000000 0.041574
v -0.023048 1.000000 0.023048
v -0.035355 -1.000000 0.035355
v -0.027101 1.000000 0.018109
v -0.041573 -1.000000 0.027779
v -0.030114 1.000000 0.012473
v -0.046194 -1.000000 0.019134
v -0.031968 1.000000 0.006359
v -0.049039 -1.000000 0.009755
v -0.032595 1.000000 -0.000000
v -0.050000 -1.000000 0.000000
v -0.031968 1.000000 -0.006359
v -0.049039 -1.000000 -0.009754
v -0.030114 1.000000 -0.012473
v -0.046194 -1.000000 -0.019134
v -0.027101 1.000000 -0.018109
v -0.041573 -1.000000 -0.027778
v -0.023048 1.000000 -0.023048
v -0.035355 -1.000000 -0.035355
v -0.018109 1.000000 -0.027102
v -0.027779 -1.000000 -0.041573
v -0.012473 1.000000 -0.030114
v -0.019134 -1.000000 -0.046194
v -0.006359 1.000000 -0.031968
v -0.009755 -1.000000 -0.049039
v 0.000000 -1.867191 0.000000
v 0.000000 -1.867191 0.000000
v 0.000000 -1.867191 0.000000
v 0.000000 -1.867191 0.000000
v 0.000000 -1.867191 0.000000
v 0.000000 -1.867191 0.000000
v 0.000000 -1.867191 0.000000
v 0.000000 -1.867191 0.000000
v 0.000000 -1.867191 0.000000
v 0.000000 -1.867191 0.000000
v 0.000000 -1.867191 0.000000
v 0.000000 -1.867191 0.000000
v 0.000000 -1.867191 0.000000
v 0.000000 -1.867191 0.000000
v 0.000000 -1.867191 0.000000
v 0.000000 -1.867191 0.000000
v 0.000000 -1.867191 0.000000
v 0.000000 -1.867191 0.000000
v 0.000000 -1.867191 0.000000
v 0.000000 -1.867191 0.000000
v 0.000000 -1.867191 0.000000
v 0.000000 -1.867191 0.000000
v 0.000000 -1.867191 0.000000
v 0.000000 -1.867191 0.000000
v 0.000000 -1.867191 0.000000
v 0.000000 -1.867191 0.000000
v 0.000000 -1.867191 0.000000
v 0.000000 -1.867191 0.000000
v 0.000000 -1.867191 0.000000
v 0.000000 -1.867191 0.000000
v 0.000000 -1.867191 0.000000
v 0.000000 -1.867191 0.000000
v 0.000000 0.900000 -0.033465
v 0.006529 0.900000 -0.032822
v 0.012806 0.900000 -0.030918
v 0.018592 0.900000 -0.027825
v 0.023663 0.900000 -0.023663
v 0.027825 0.900000 -0.018592
v 0.030918 0.900000 -0.012807
v 0.032822 0.900000 -0.006529
v 0.033465 0.900000 -0.000000
v 0.032822 0.900000 0.006529
v 0.030918 0.900000 0.012806
v 0.027825 0.900000 0.018592
v 0.023663 0.900000 0.023663
v 0.018592 0.900000 0.027825
v 0.012806 0.900000 0.030918
v 0.006529 0.900000 0.032822
v 0.000000 0.900000 0.033465
v -0.006529 0.900000 0.032822
v -0.012806 0.900000 0.030918
v -0.018592 0.900000 0.027825
v -0.023663 0.900000 0.023663
v -0.027825 0.900000 0.018592
v -0.030918 0.900000 0.012806
v -0.032822 0.900000 0.006529
v -0.033465 0.900000 -0.000000
v -0.032822 0.900000 -0.006529
v -0.030918 0.900000 -0.012807
v -0.027825 0.900000 -0.018592
v -0.023663 0.900000 -0.023663
v -0.018592 0.900000 -0.027825
v -0.012806 0.900000 -0.030918
v -0.006529 0.900000 -0.032822
v 0.000000 1.100000 -0.065189
v 0.000000 1.100000 -0.063937
v 0.000000 1.000000 -0.065644
v 0.000000 1.000000 0.065644
v 0.000000 1.100000 0.063937
v 0.000000 1.100000 0.065189
v 0.000000 1.000000 0.066930
v 0.000000 1.100000 0.063937
v 0.000000 1.000000 0.065644
v 0.000000 1.000000 -0.065644
v 0.000000 1.100000 -0.063937
v 0.000000 1.000000 -0.066930
v 0.065644 1.000000 -0.000000
v 0.063937 1.100000 -0.000000
v 0.065189 1.100000 -0.000000
v 0.066930 1.000000 -0.000000
v 0.063937 1.100000 -0.000000
v 0.065644 1.000000 -0.000000
v -0.065644 1.000000 -0.000000
v -0.063937 1.100000 -0.000000
v -0.065189 1.100000 -0.000000
v -0.066930 1.000000 -0.000000
v -0.063937 1.100000 -0.000000
v -0.065644 1.000000 -0.000000
vn 0.0980 0.0087 -0.9951
vn 0.2903 0.0087 -0.9569
vn 0.4714 0.0087 -0.8819
vn 0.6344 0.0087 -0.7730
vn 0.7730 0.0087 -0.6344
vn 0.8819 0.0087 -0.4714
vn 0.9569 0.0087 -0.2903
vn 0.9951 0.0087 -0.0980
vn 0.9951 0.0087 0.0980
vn 0.9569 0.0087 0.2903
vn 0.8819 0.0087 0.4714
vn 0.7730 0.0087 0.6344
vn 0.6344 0.0087 0.7730
vn 0.4714 0.0087 0.8819
vn 0.2903 0.0087 0.9569
vn 0.0980 0.0087 0.9951
vn -0.0980 0.0087 0.9951
vn -0.2903 0.0087 0.9569
vn -0.4714 0.0087 0.8819
vn -0.6344 0.0087 0.7730
vn -0.7730 0.0087 0.6344
vn -0.8819 0.0087 0.4714
vn -0.9569 0.0087 0.2903
vn -0.9951 0.0087 0.0980
vn -0.9951 0.0087 -0.0980
vn -0.9569 0.0087 -0.2903
vn -0.8819 0.0087 -0.4714
vn -0.7730 0.0087 -0.6344
vn -0.6344 0.0087 -0.7730
vn -0.4714 0.0087 -0.8819
vn -0.0000 0.0147 -0.9999
vn -0.2903 0.0087 -0.9569
vn -0.0980 0.0087 -0.9951
vn -0.0000 1.0000 -0.0000
vn -0.0000 -0.0000 1.0000
vn -0.0000 0.0167 -0.9999
vn -0.0000 0.0180 0.9998
vn -0.9995 0.0312 -0.0000
vn -0.0000 -0.0000 -1.0000
vn -0.0000 -0.0576 -0.9983
vn -0.0000 -0.1168 -0.9932
vn 0.9983 0.0576 -0.0000
vn -0.0000 -0.2290 -0.9734
vn -0.0000 0.0576 -0.9983
vn -0.0000 -1.0000 -0.0000
vn 0.9983 -0.0576 -0.0000
vn 1.0000 -0.0000 -0.0000
vn 0.9478 -0.3050 -0.0933
vn -1.0000 -0.0000 -0.0000
vn -0.0933 -0.3050 -0.9478
vn 0.9500 0.2978 0.0936
vn 0.0936 0.2978 -0.9500
vn 0.9826 0.0033 -0.1855
vn -0.9826 0.0033 0.1855
vn -0.0936 0.2978 0.9500
vn 0.0933 -0.3050 0.9478
vn 0.9826 0.0032 0.1855
vn -0.9826 0.0032 -0.1855
vn -0.9478 -0.3050 0.0933
vn 0.1855 0.0033 0.9826
vn -0.1855 0.0033 -0.9826
vn 0.1855 0.0032 -0.9826
vn -0.1855 0.0032 0.9826
vn -0.9500 0.2978 -0.0936
vn 0.6334 -0.0573 -0.7717
vn -0.0000 1.0000 0.0001
vn -0.0000 1.0000 -0.0001
vn 0.6334 -0.0573 0.7717
vn -0.8805 -0.0573 0.4706
vn -0.2898 -0.0573 -0.9554
vn 0.9936 -0.0573 0.0979
vn -0.2898 -0.0573 0.9554
vn -0.8805 -0.0573 -0.4706
vn 0.7717 -0.0573 -0.6334
vn 0.4706 -0.0573 0.8805
vn -0.9554 -0.0573 0.2898
vn 0.0979 -0.0573 -0.9936
vn -0.0979 -0.0573 -0.9936
vn 0.9554 -0.0573 0.2898
vn -0.4706 -0.0573 0.8805
vn -0.7717 -0.0573 -0.6334
vn 0.8805 -0.0573 -0.4706
vn 0.2898 -0.0573 0.9554
vn -0.9936 -0.0573 0.0979
vn 0.2898 -0.0573 -0.9554
vn 0.8805 -0.0573 0.4706
vn -0.6334 -0.0573 0.7717
vn -0.6334 -0.0573 -0.7717
vn 0.9554 -0.0573 -0.2898
vn 0.0979 -0.0573 0.9936
vn -0.9936 -0.0573 -0.0979
vn 0.4706 -0.0573 -0.8805
vn 0.7717 -0.0573 0.6334
vn -0.7717 -0.0573 0.6334
vn -0.4706 -0.0573 -0.8805
vn 0.9936 -0.0573 -0.0979
vn -0.0979 -0.0573 0.9936
vn -0.9554 -0.0573 -0.2898
vn 0.0933 -0.3050 -0.9478
vn -0.9478 -0.3050 -0.0933
vn -0.0936 0.2978 -0.9500
vn -0.9500 0.2978 0.0936
vn 0.0936 0.2978 0.9500
vn -0.0933 -0.3050 0.9478
vn 0.9826 0.0032 -0.1855
vn -0.9826 0.0032 0.1855
vn 0.9826 0.0033 0.1855
vn -0.9826 0.0033 -0.1855
vn 0.9500 0.2978 -0.0936
vn 0.1855 0.0032 0.9826
vn -0.1855 0.0032 -0.9826
vn 0.1855 0.0033 -0.9826
vn 0.9478 -0.3050 0.0933
vn -0.1855 0.0033 0.9826
vt 0.025158 0.000166
vt 0.500000 0.031406
vt 0.025158 0.031406
vt 0.025158 0.062645
vt 0.500000 0.093885
vt 0.025158 0.093885
vt 0.025158 0.125125
vt 0.500000 0.125125
vt 0.025158 0.156364
vt 0.500000 0.156364
vt 0.025158 0.187604
vt 0.500000 0.218843
vt 0.025158 0.218843
vt 0.025158 0.250083
vt 0.500000 0.250083
vt 0.025158 0.281323
vt 0.500000 0.281323
vt 0.025158 0.312562
vt 0.500000 0.343802
vt 0.025158 0.343802
vt 0.025158 0.375041
vt 0.500000 0.375041
vt 0.025158 0.406281
vt 0.500000 0.406281
vt 0.025158 0.437521
vt 0.500000 0.437521
vt 0.025158 0.468760
vt 0.500000 0.500000
vt 0.025158 0.500000
vt 0.025158 0.531240
vt 0.500000 0.562479
vt 0.025158 0.562479
vt 0.025158 0.593719
vt 0.500000 0.593719
vt 0.025158 0.624958
vt 0.500000 0.656198
vt 0.025158 0.656198
vt 0.025158 0.687438
vt 0.500000 0.687438
vt 0.025158 0.718677
vt 0.500000 0.749917
vt 0.025158 0.749917
vt 0.025158 0.781156
vt 0.500000 0.781156
vt 0.025158 0.812396
vt 0.500000 0.812396
vt 0.025158 0.843636
vt 0.500000 0.843636
vt 0.025158 0.874875
vt 0.500000 0.906115
vt 0.025158 0.906115
vt 0.500000 0.937355
vt 0.025158 0.937355
vt 0.025158 0.968594
vt 0.500000 0.999834
vt 0.025158 0.999834
vt 0.715581 0.000166
vt 0.500332 0.262448
vt 0.762614 0.477696
vt 0.977862 0.740310
vt 0.968687 0.786439
vt 0.500332 0.693277
vt 0.500000 0.968594
vt 0.500000 0.531240
vt 0.500000 0.718677
vt 0.500000 0.000166
vt 0.500000 0.312562
vt 0.500000 0.874875
vt 0.500000 0.187604
vt 0.500000 0.468760
vt 0.500000 0.062645
vt 0.500000 0.624958
vt 0.000166 0.968594
vt 0.000166 0.937355
vt 0.000166 0.906115
vt 0.000166 0.874875
vt 0.000166 0.843636
vt 0.000166 0.812396
vt 0.000166 0.781156
vt 0.000166 0.718677
vt 0.000166 0.687438
vt 0.000166 0.656198
vt 0.000166 0.624958
vt 0.000166 0.593719
vt 0.000166 0.562479
vt 0.000166 0.531240
vt 0.669452 0.009342
vt 0.000166 0.468760
vt 0.000166 0.437521
vt 0.000166 0.406281
vt 0.000166 0.375041
vt 0.000166 0.343802
vt 0.000166 0.312562
vt 0.000166 0.281323
vt 0.968687 0.169286
vt 0.977862 0.215415
vt 0.509508 0.308576
vt 0.527507 0.352029
vt 0.000166 0.218843
vt 0.000166 0.187604
vt 0.000166 0.156364
vt 0.000166 0.125125
vt 0.000166 0.093885
vt 0.000166 0.062645
vt 0.000166 0.031406
vt 0.626000 0.027340
vt 0.000166 0.999834
vt 0.000166 0.500000
vt 0.000166 0.000166
vt 0.808743 0.468520
vt 0.852195 0.450522
vt 0.000166 0.749917
vt 0.000166 0.250083
vt 0.950688 0.125833
vt 0.891301 0.424392
vt 0.924558 0.391135
vt 0.950688 0.352029
vt 0.968687 0.308576
vt 0.977862 0.262447
vt 0.924558 0.086727
vt 0.891301 0.053470
vt 0.852195 0.027340
vt 0.808742 0.009342
vt 0.762614 0.000166
vt 0.586893 0.053470
vt 0.553636 0.086727
vt 0.527507 0.125834
vt 0.509508 0.169286
vt 0.500332 0.215415
vt 0.553636 0.391135
vt 0.586894 0.424392
vt 0.626000 0.450522
vt 0.669452 0.468521
vt 0.715581 0.477696
vt 0.968687 0.647148
vt 0.977862 0.693277
vt 0.950688 0.829891
vt 0.924558 0.868997
vt 0.950688 0.603696
vt 0.891301 0.902254
vt 0.924558 0.564590
vt 0.852195 0.928384
vt 0.891301 0.531333
vt 0.808742 0.946383
vt 0.852195 0.505203
vt 0.762614 0.955558
vt 0.808743 0.487204
vt 0.715581 0.955558
vt 0.762614 0.478028
vt 0.669452 0.946383
vt 0.715581 0.478028
vt 0.626000 0.928384
vt 0.669452 0.487204
vt 0.586893 0.902254
vt 0.626000 0.505203
vt 0.553636 0.868997
vt 0.586894 0.531332
vt 0.527507 0.829891
vt 0.553637 0.564590
vt 0.509508 0.786438
vt 0.527507 0.603696
vt 0.500332 0.740310
vt 0.509508 0.647148
s 0
f 97/1/1 98/3/1 4/2/1
f 4/2/2 98/3/2 99/4/2
f 99/4/3 100/6/3 8/5/3
f 8/5/4 100/6/4 101/7/4
f 10/8/5 101/7/5 102/9/5
f 12/10/6 102/9/6 103/11/6
f 103/11/7 104/13/7 16/12/7
f 16/12/8 104/13/8 105/14/8
f 18/15/9 105/14/9 106/16/9
f 20/17/10 106/16/10 107/18/10
f 107/18/11 108/20/11 24/19/11
f 24/19/12 108/20/12 109/21/12
f 26/22/13 109/21/13 110/23/13
f 28/24/14 110/23/14 111/25/14
f 30/26/15 111/25/15 112/27/15
f 112/27/16 113/29/16 34/28/16
f 34/28/17 113/29/17 114/30/17
f 114/30/18 115/32/18 38/31/18
f 38/31/19 115/32/19 116/33/19
f 40/34/20 116/33/20 117/35/20
f 117/35/21 118/37/21 44/36/21
f 44/36/22 118/37/22 119/38/22
f 46/39/23 119/38/23 120/40/23
f 120/40/24 121/42/24 50/41/24
f 50/41/25 121/42/25 122/43/25
f 52/44/26 122/43/26 123/45/26
f 54/46/27 123/45/27 124/47/27
f 56/48/28 124/47/28 125/49/28
f 125/49/29 126/51/29 60/50/29
f 126/51/30 127/53/30 62/52/30
f 10/8/31 69/8/31 68/5/31
f 62/52/32 127/53/32 128/54/32
f 128/54/33 97/56/33 2/55/33
f 31/57/34 63/59/34 47/58/34
f 66/60/35 81/62/35 96/61/35
f 28/24/36 78/24/36 77/22/36
f 46/39/35 87/39/35 86/36/35
f 64/63/37 96/63/37 95/52/37
f 20/17/38 74/17/38 73/15/38
f 38/31/39 83/31/39 82/64/39
f 56/48/35 92/48/35 91/46/35
f 12/10/35 70/10/35 69/8/35
f 30/26/35 79/26/35 78/24/35
f 48/65/35 88/65/35 87/39/35
f 4/2/35 65/2/35 66/66/35
f 2/55/40 66/55/40 96/63/40
f 22/67/35 75/67/35 74/17/35
f 40/34/35 84/34/35 83/31/35
f 58/68/35 93/68/35 92/48/35
f 14/69/35 71/69/35 70/10/35
f 32/70/41 80/70/41 79/26/41
f 50/41/42 89/41/42 88/65/42
f 6/71/39 67/71/39 65/2/39
f 24/19/35 76/19/35 75/67/35
f 42/72/43 85/72/43 84/34/43
f 60/50/35 94/50/35 93/68/35
f 16/12/35 72/12/35 71/69/35
f 34/28/44 81/28/44 80/70/44
f 52/44/45 90/44/45 89/41/45
f 8/5/35 68/5/35 67/71/35
f 26/22/35 77/22/35 76/19/35
f 44/36/35 86/36/35 85/72/35
f 62/52/35 95/52/35 94/50/35
f 18/15/46 73/15/46 72/12/46
f 36/64/35 82/64/35 81/28/35
f 54/46/35 91/46/35 90/44/35
f 97/1/47 140/1/47 131/3/47
f 127/53/32 61/74/32 63/73/32
f 126/51/30 59/75/30 61/74/30
f 125/49/29 57/76/29 59/75/29
f 124/47/28 55/77/28 57/76/28
f 53/78/27 55/77/27 124/47/27
f 51/79/26 53/78/26 123/45/26
f 121/42/39 150/42/39 152/43/39
f 105/14/48 104/13/48 141/13/48
f 119/38/23 45/81/23 47/80/23
f 118/37/22 43/82/22 45/81/22
f 41/83/21 43/82/21 118/37/21
f 39/84/20 41/83/20 117/35/20
f 115/32/19 37/85/19 39/84/19
f 35/86/18 37/85/18 115/32/18
f 33/87/49 134/87/49 133/57/49
f 97/56/50 128/54/50 138/54/50
f 111/25/15 29/89/15 31/88/15
f 110/23/14 27/90/14 29/89/14
f 109/21/13 25/91/13 27/90/13
f 108/20/12 23/92/12 25/91/12
f 21/93/11 23/92/11 108/20/11
f 19/94/10 21/93/10 107/18/10
f 17/95/35 143/95/35 142/96/35
f 49/97/51 51/98/51 151/98/51
f 103/11/7 13/100/7 15/99/7
f 102/9/6 11/101/6 13/100/6
f 9/102/5 11/101/5 102/9/5
f 7/103/4 9/102/4 101/7/4
f 99/4/3 5/104/3 7/103/3
f 3/105/2 5/104/2 99/4/2
f 33/87/52 35/106/52 136/106/52
f 138/54/49 139/73/49 129/107/49
f 134/108/49 136/86/49 137/30/49
f 132/27/47 133/88/47 134/108/47
f 129/109/47 130/105/47 131/3/47
f 1/110/47 129/110/47 139/59/47
f 113/29/49 135/29/49 137/30/49
f 3/105/53 98/3/53 131/3/53
f 35/86/54 114/30/54 137/30/54
f 1/110/55 3/111/55 130/111/55
f 113/29/56 112/27/56 132/27/56
f 31/88/57 133/88/57 132/27/57
f 63/73/58 139/73/58 138/54/58
f 149/112/39 151/79/39 152/43/39
f 147/40/35 148/80/35 149/112/35
f 143/113/35 145/94/35 146/16/35
f 141/13/39 142/99/39 143/113/39
f 49/97/39 149/97/39 148/58/39
f 121/42/59 120/40/59 147/40/59
f 19/94/60 106/16/60 146/16/60
f 51/79/61 122/43/61 152/43/61
f 15/99/62 142/99/62 141/13/62
f 105/14/35 144/14/35 146/16/35
f 47/80/63 148/80/63 147/40/63
f 17/95/64 19/114/64 145/114/64
f 97/1/1 4/2/1 2/66/1
f 4/2/2 99/4/2 6/71/2
f 99/4/3 8/5/3 6/71/3
f 8/5/4 101/7/4 10/8/4
f 10/8/5 102/9/5 12/10/5
f 12/10/6 103/11/6 14/69/6
f 103/11/7 16/12/7 14/69/7
f 16/12/8 105/14/8 18/15/8
f 18/15/9 106/16/9 20/17/9
f 20/17/10 107/18/10 22/67/10
f 107/18/11 24/19/11 22/67/11
f 24/19/12 109/21/12 26/22/12
f 26/22/13 110/23/13 28/24/13
f 28/24/14 111/25/14 30/26/14
f 30/26/15 112/27/15 32/70/15
f 112/27/16 34/28/16 32/70/16
f 34/28/17 114/30/17 36/64/17
f 114/30/18 38/31/18 36/64/18
f 38/31/19 116/33/19 40/34/19
f 40/34/20 117/35/20 42/72/20
f 117/35/21 44/36/21 42/72/21
f 44/36/22 119/38/22 46/39/22
f 46/39/23 120/40/23 48/65/23
f 120/40/24 50/41/24 48/65/24
f 50/41/25 122/43/25 52/44/25
f 52/44/26 123/45/26 54/46/26
f 54/46/27 124/47/27 56/48/27
f 56/48/28 125/49/28 58/68/28
f 125/49/29 60/50/29 58/68/29
f 126/51/30 62/52/30 60/50/30
f 10/8/65 68/5/65 8/5/65
f 62/52/32 128/54/32 64/63/32
f 128/54/33 2/55/33 64/63/33
f 63/59/66 3/111/66 1/110/66
f 3/111/67 7/116/67 5/115/67
f 7/116/66 11/118/66 9/117/66
f 11/118/66 15/96/66 13/119/66
f 15/96/34 19/114/34 17/95/34
f 19/114/67 23/121/67 21/120/67
f 23/121/67 27/123/67 25/122/67
f 27/123/66 31/57/66 29/124/66
f 31/57/67 35/106/67 33/87/67
f 35/106/34 39/126/34 37/125/34
f 39/126/67 43/128/67 41/127/67
f 43/128/67 47/58/67 45/129/67
f 47/58/34 51/98/34 49/97/34
f 51/98/66 55/131/66 53/130/66
f 55/131/66 59/133/66 57/132/66
f 59/133/34 63/59/34 61/134/34
f 63/59/34 7/116/34 3/111/34
f 7/116/34 15/96/34 11/118/34
f 15/96/34 23/121/34 19/114/34
f 23/121/34 31/57/34 27/123/34
f 31/57/34 39/126/34 35/106/34
f 39/126/34 47/58/34 43/128/34
f 47/58/34 55/131/34 51/98/34
f 55/131/34 63/59/34 59/133/34
f 63/59/34 15/96/34 7/116/34
f 15/96/34 31/57/34 23/121/34
f 31/57/34 47/58/34 39/126/34
f 47/58/34 63/59/34 55/131/34
f 63/59/34 31/57/34 15/96/34
f 67/135/35 66/60/35 65/136/35
f 96/61/35 94/138/35 95/137/35
f 68/139/35 66/60/35 67/135/35
f 96/61/35 93/140/35 94/138/35
f 69/141/35 66/60/35 68/139/35
f 96/61/35 92/142/35 93/140/35
f 70/143/35 66/60/35 69/141/35
f 96/61/35 91/144/35 92/142/35
f 71/145/35 66/60/35 70/143/35
f 96/61/35 90/146/35 91/144/35
f 72/147/35 66/60/35 71/145/35
f 96/61/35 89/148/35 90/146/35
f 73/149/35 66/60/35 72/147/35
f 96/61/35 88/150/35 89/148/35
f 74/151/35 66/60/35 73/149/35
f 96/61/35 87/152/35 88/150/35
f 75/153/35 66/60/35 74/151/35
f 96/61/35 86/154/35 87/152/35
f 76/155/35 66/60/35 75/153/35
f 96/61/35 85/156/35 86/154/35
f 77/157/35 66/60/35 76/155/35
f 96/61/35 84/158/35 85/156/35
f 78/159/35 66/60/35 77/157/35
f 96/61/35 83/160/35 84/158/35
f 79/161/35 66/60/35 78/159/35
f 96/61/35 82/162/35 83/160/35
f 80/163/35 66/60/35 79/161/35
f 96/61/35 81/62/35 82/162/35
f 81/62/35 66/60/35 80/163/35
f 28/24/68 77/22/68 26/22/68
f 46/39/69 86/36/69 44/36/69
f 64/63/70 95/52/70 62/52/70
f 20/17/71 73/15/71 18/15/71
f 38/31/72 82/64/72 36/64/72
f 56/48/73 91/46/73 54/46/73
f 12/10/74 69/8/74 10/8/74
f 30/26/75 78/24/75 28/24/75
f 48/65/76 87/39/76 46/39/76
f 4/2/77 66/66/77 2/66/77
f 2/55/78 96/63/78 64/63/78
f 22/67/79 74/17/79 20/17/79
f 40/34/80 83/31/80 38/31/80
f 58/68/81 92/48/81 56/48/81
f 14/69/82 70/10/82 12/10/82
f 32/70/83 79/26/83 30/26/83
f 50/41/84 88/65/84 48/65/84
f 6/71/85 65/2/85 4/2/85
f 24/19/86 75/67/86 22/67/86
f 42/72/87 84/34/87 40/34/87
f 60/50/88 93/68/88 58/68/88
f 16/12/89 71/69/89 14/69/89
f 34/28/90 80/70/90 32/70/90
f 52/44/91 89/41/91 50/41/91
f 8/5/92 67/71/92 6/71/92
f 26/22/93 76/19/93 24/19/93
f 44/36/94 85/72/94 42/72/94
f 62/52/95 94/50/95 60/50/95
f 18/15/96 72/12/96 16/12/96
f 36/64/97 81/28/97 34/28/97
f 54/46/98 90/44/98 52/44/98
f 97/1/99 131/3/99 98/3/99
f 127/53/32 63/73/32 128/54/32
f 126/51/30 61/74/30 127/53/30
f 125/49/29 59/75/29 126/51/29
f 124/47/28 57/76/28 125/49/28
f 53/78/27 124/47/27 123/45/27
f 51/79/26 123/45/26 122/43/26
f 121/42/100 152/43/100 122/43/100
f 105/14/39 141/13/39 144/14/39
f 119/38/23 47/80/23 120/40/23
f 118/37/22 45/81/22 119/38/22
f 41/83/21 118/37/21 117/35/21
f 39/84/20 117/35/20 116/33/20
f 115/32/19 39/84/19 116/33/19
f 35/86/18 115/32/18 114/30/18
f 33/87/101 133/57/101 31/57/101
f 97/56/49 138/54/49 140/56/49
f 111/25/15 31/88/15 112/27/15
f 110/23/14 29/89/14 111/25/14
f 109/21/13 27/90/13 110/23/13
f 108/20/12 25/91/12 109/21/12
f 21/93/11 108/20/11 107/18/11
f 19/94/10 107/18/10 106/16/10
f 17/95/102 142/96/102 15/96/102
f 49/97/35 151/98/35 149/97/35
f 103/11/7 15/99/7 104/13/7
f 102/9/6 13/100/6 103/11/6
f 9/102/5 102/9/5 101/7/5
f 7/103/4 101/7/4 100/6/4
f 99/4/3 7/103/3 100/6/3
f 3/105/2 99/4/2 98/3/2
f 33/87/47 136/106/47 134/87/47
f 138/54/49 129/107/49 140/56/49
f 134/108/49 137/30/49 135/29/49
f 132/27/47 134/108/47 135/29/47
f 129/109/47 131/3/47 140/1/47
f 1/110/103 139/59/103 63/59/103
f 113/29/104 137/30/104 114/30/104
f 3/105/105 131/3/105 130/105/105
f 35/86/106 137/30/106 136/86/106
f 1/110/49 130/111/49 129/110/49
f 113/29/47 132/27/47 135/29/47
f 31/88/107 132/27/107 112/27/107
f 63/73/108 138/54/108 128/54/108
f 149/112/39 152/43/39 150/42/39
f 147/40/35 149/112/35 150/42/35
f 143/113/35 146/16/35 144/14/35
f 141/13/39 143/113/39 144/14/39
f 49/97/109 148/58/109 47/58/109
f 121/42/35 147/40/35 150/42/35
f 19/94/110 146/16/110 145/94/110
f 51/79/111 152/43/111 151/79/111
f 15/99/112 141/13/112 104/13/112
f 105/14/113 146/16/113 106/16/113
f 47/80/114 147/40/114 120/40/114
f 17/95/39 145/114/39 143/95/39
