# Blender 4.2.3 LTS
# www.blender.org
mtllib house.mtl
o Cube
v 24.400000 20.720999 0.000000
v 24.400000 -20.720999 0.000000
v -24.400000 20.720999 0.000000
v -24.400000 -20.720999 0.000000
v 0.000000 20.720999 0.000000
v 0.000000 -20.720999 0.000000
v 2.440000 -20.720999 0.000000
v 2.440000 20.720999 0.000000
v -2.440000 20.720999 0.000000
v -2.440000 -20.720999 0.000000
v 24.231075 20.522329 20.800001
v 24.400015 20.721018 20.800001
v 24.400015 20.721014 0.000000
v 24.215000 20.535999 0.000000
v 24.232552 -20.521282 20.800001
v 24.400015 -20.721018 20.800001
v 24.400015 -20.721014 0.000000
v 24.215000 -20.535999 0.000000
v -24.231075 20.522329 20.800001
v -24.400015 20.721018 20.800001
v -24.215000 20.535999 0.000000
v -24.400015 20.721014 0.000000
v -24.232552 -20.521282 20.800001
v -24.400015 -20.721018 20.800001
v -24.215000 -20.535999 0.000000
v -24.400015 -20.721014 0.000000
v 0.000000 20.535999 0.000000
v 0.000000 20.721029 0.000000
v 0.000000 -20.535999 27.726246
v 0.000000 -20.721027 27.726246
v 0.000000 20.535999 27.726246
v 0.000000 20.721025 27.726246
v 24.400030 20.721029 11.155195
v 24.215000 20.535999 11.155195
v -24.215000 -20.535999 11.155195
v -24.400030 -20.721029 11.155195
v 24.400030 -20.721029 11.155195
v 24.215000 -20.535999 11.155195
v -24.400030 20.721029 11.155195
v -24.215000 20.535999 11.155195
v 0.000000 20.721062 11.155195
v 0.000000 20.535999 11.155195
v 0.000000 -20.721029 11.155195
v 0.000000 -20.535999 11.155195
v 4.440000 -20.535999 0.000000
v 4.440000 -20.721014 0.000000
v 2.440000 20.535999 27.033621
v 2.440000 20.721029 27.033621
v 2.440000 20.535999 0.000000
v 2.440000 20.721029 0.000000
v 4.440000 -20.535999 27.033621
v 4.440000 -20.721029 27.033621
v 4.440000 -20.721046 11.155195
v 4.440000 -20.535999 11.155195
v 2.440000 20.535999 11.155195
v 2.440000 20.721062 11.155195
v -2.440000 20.535999 0.000000
v -2.440000 20.721029 0.000000
v -4.440000 -20.535999 27.033621
v -4.440000 -20.721029 27.033621
v -4.440000 -20.535999 0.000000
v -4.440000 -20.721014 0.000000
v -2.440000 20.535999 27.033621
v -2.440000 20.721029 27.033621
v -2.440000 20.535999 11.155195
v -2.440000 20.721062 11.155195
v -4.440000 -20.535999 11.155195
v -4.440000 -20.721046 11.155195
v 27.999254 23.452902 21.073713
v 27.616940 23.452902 19.726885
v 27.999254 -23.452902 21.073713
v 27.616940 -23.452902 19.726885
v -27.999254 23.452902 21.073713
v -27.616940 23.452902 19.726885
v -27.999254 -23.452902 21.073713
v -27.616940 -23.452902 19.726885
v 0.000000 -23.452902 28.913130
v 0.000000 -23.452902 27.566301
v 0.000000 23.452902 28.913130
v 0.000000 23.452902 27.566301
v 3.143998 23.452902 28.129187
v 2.761684 23.452902 26.782358
v 3.143998 -23.452902 28.129187
v 2.761684 -23.452902 26.782358
v -3.143998 -23.452902 28.129187
v -2.761684 -23.452902 26.782358
v -3.143998 23.452902 28.129187
v -2.761684 23.452902 26.782358
vn -0.0000 -0.0000 -1.0000
vn -0.3004 -0.0000 0.9538
vn -0.0000 -0.0000 1.0000
vn 0.2750 -0.0000 0.9614
vn 0.1541 -0.0000 0.9881
vn -0.2731 -0.0000 0.9620
vn 0.2731 -0.0000 0.9620
vn 0.2892 0.2425 0.9260
vn -1.0000 -0.0000 -0.0000
vn -0.1541 -0.0000 0.9881
vn -0.2660 -0.2262 0.9371
vn 1.0000 -0.0000 -0.0000
vn -0.0000 -1.0000 -0.0000
vn -0.0000 1.0000 -0.0015
vn 1.0000 -0.0000 0.0018
vn -1.0000 -0.0000 0.0018
vn -0.0000 1.0000 -0.0000
vn -0.0000 -1.0000 -0.0014
vn 0.9620 -0.0000 -0.2731
vn -0.9620 -0.0000 -0.2731
vn 0.2731 -0.0000 -0.9620
vn 0.2419 -0.0000 0.9703
vn -0.2731 -0.0000 -0.9620
vn -0.2419 -0.0000 0.9703
vn -0.2892 0.2425 0.9260
vn 0.2660 -0.2262 0.9371
vn 0.1541 -0.0000 0.9880
vn 0.3004 -0.0000 0.9538
vn -0.1541 -0.0000 0.9880
vn -0.2750 -0.0000 0.9614
vn 0.0007 1.0000 -0.0000
vn 1.0000 -0.0000 0.0017
vn -1.0000 -0.0000 0.0017
vn -0.0006 -1.0000 -0.0000
vn -0.0007 1.0000 -0.0000
vn 0.0006 -1.0000 -0.0000
vt 1.000000 1.000000
vt 0.550000 0.000000
vt 0.550000 1.000000
vt 0.500000 1.000000
vt 0.450000 0.000000
vt 0.450000 1.000000
vt 0.500000 0.000000
vt 0.000000 0.000000
vt 0.000000 1.000000
vt 0.916203 0.008460
vt 0.916203 0.491540
vt 0.338801 0.009962
vt 0.338801 0.265945
vt 0.247616 0.578813
vt 0.320280 0.322830
vt 0.673742 0.508460
vt 0.673742 0.991540
vt 0.005155 0.009962
vt 0.005155 0.265945
vt 0.673742 0.491540
vt 0.673742 0.008460
vt 0.581263 0.578813
vt 0.653927 0.322830
vt 0.916203 0.508460
vt 0.916203 0.991540
vt 0.338801 0.294387
vt 0.338801 0.322830
vt 0.328354 0.294387
vt 0.320280 0.265945
vt 0.653927 0.265945
vt 0.662000 0.294387
vt 0.100219 0.294387
vt 0.100219 0.265945
vt 0.338801 0.578813
vt 0.247616 0.009962
vt 0.005155 0.578813
vt 0.005155 0.322830
vt 0.581263 0.009962
vt 0.100219 0.322830
vt 0.100219 0.578813
vt 0.821139 0.491540
vt 0.821140 0.008460
vt 0.821140 0.991540
vt 0.821140 0.508460
vt 0.433865 0.322830
vt 0.433865 0.578813
vt 0.433865 0.294387
vt 0.433865 0.265945
vt 0.100219 0.009962
vt 0.433865 0.009962
vt 0.011328 0.557801
vt 0.430204 0.652549
vt 0.423859 0.674903
vt 0.947099 0.859656
vt 0.168588 0.882893
vt 0.168588 0.859656
vt 0.947099 0.910066
vt 0.168588 0.933303
vt 0.168588 0.910066
vt 0.017674 0.702370
vt 0.436550 0.797118
vt 0.430204 0.819472
vt 0.528223 0.674902
vt 0.476041 0.665560
vt 0.521878 0.652549
vt 0.534568 0.819471
vt 0.482386 0.810129
vt 0.528223 0.797118
vt 0.482386 0.832483
vt 0.934408 0.535447
vt 0.940754 0.557800
vt 0.476041 0.687914
vt 0.940754 0.680016
vt 0.947099 0.702370
vt 0.416782 0.279126
vt 0.007149 0.496190
vt 0.007149 0.279126
vt 0.431080 0.007149
vt 0.840714 0.224213
vt 0.431080 0.224212
vt 0.416782 0.224213
vt 0.007149 0.251669
vt 0.007149 0.224213
vt 0.431080 0.248331
vt 0.840714 0.272449
vt 0.431080 0.272449
vt 0.416782 0.007149
vt 0.007149 0.007149
vt 0.840714 0.489512
vt 0.431080 0.489512
vt 0.416782 0.251669
vt 0.840714 0.248331
vt 1.000000 0.000000
vt 0.017674 0.535447
vt 0.947099 0.882893
vt 0.947099 0.933303
vt 0.024019 0.680016
vt 0.416782 0.496190
vt 0.840714 0.007149
s 0
usemtl Material
f 1/1/1 7/2/1 8/3/1
f 5/4/1 10/5/1 9/6/1
f 8/3/1 6/7/1 5/4/1
f 9/6/1 4/8/1 3/9/1
f 21/10/1 26/11/1 22/10/1
f 21/12/1 58/13/1 57/13/1
f 23/14/2 60/15/2 59/15/2
f 15/16/3 12/17/3 11/17/3
f 18/18/1 46/19/1 45/19/1
f 23/20/3 20/21/3 24/20/3
f 11/22/4 48/23/4 47/23/4
f 18/24/1 13/25/1 17/24/1
f 27/26/1 50/27/1 49/27/1
f 29/28/5 52/29/5 51/29/5
f 63/30/6 32/31/6 64/30/6
f 43/32/1 54/33/1 53/33/1
f 47/23/7 32/31/7 31/31/7
f 14/34/1 50/27/1 13/34/1
f 15/35/8 52/29/8 16/35/8
f 45/19/9 53/33/9 54/33/9
f 57/13/1 28/26/1 27/26/1
f 59/15/10 30/28/10 29/28/10
f 25/36/1 62/37/1 26/36/1
f 19/38/11 64/30/11 20/38/11
f 43/32/1 67/39/1 44/32/1
f 62/37/12 67/39/12 68/39/12
f 68/39/13 24/14/13 36/40/13
f 23/14/14 67/39/14 35/40/14
f 36/41/9 20/21/9 39/42/9
f 40/42/15 23/20/15 35/41/15
f 33/43/12 16/16/12 37/44/12
f 15/16/16 34/43/16 38/44/16
f 56/45/17 12/22/17 33/46/17
f 11/22/18 55/45/18 34/46/18
f 41/47/17 64/30/17 32/31/17
f 42/47/13 63/30/13 65/48/13
f 43/32/13 52/29/13 30/28/13
f 44/32/17 51/29/17 54/33/17
f 58/13/17 41/47/17 28/26/17
f 42/47/13 57/13/13 27/26/13
f 13/34/17 56/45/17 33/46/17
f 34/46/13 49/27/13 14/34/13
f 13/25/12 37/44/12 17/24/12
f 38/44/9 14/25/9 18/24/9
f 26/11/9 39/42/9 22/10/9
f 40/42/12 25/11/12 21/10/12
f 26/36/13 68/39/13 36/40/13
f 35/40/17 61/37/17 25/36/17
f 28/26/17 56/45/17 50/27/17
f 55/45/13 27/26/13 49/27/13
f 17/18/13 53/33/13 46/19/13
f 54/33/17 18/18/17 45/19/17
f 53/33/13 16/35/13 52/29/13
f 54/33/14 15/35/14 38/49/14
f 41/47/17 48/23/17 56/45/17
f 47/23/13 42/47/13 55/45/13
f 22/12/17 66/48/17 58/13/17
f 65/48/13 21/12/13 57/13/13
f 66/48/17 20/38/17 64/30/17
f 65/48/18 19/38/18 40/50/18
f 43/32/13 60/15/13 68/39/13
f 59/15/17 44/32/17 67/39/17
f 75/51/13 86/52/13 85/53/13
f 71/54/19 70/55/19 69/56/19
f 73/57/20 76/58/20 75/59/20
f 69/60/17 82/61/17 81/62/17
f 83/63/13 78/64/13 84/65/13
f 87/66/17 80/67/17 88/68/17
f 81/62/17 80/67/17 79/69/17
f 83/63/13 72/70/13 71/71/13
f 85/53/13 78/64/13 77/72/13
f 87/66/17 74/73/17 73/74/17
f 87/75/6 75/76/6 85/77/6
f 76/78/21 88/79/21 86/80/21
f 81/81/22 77/82/22 83/83/22
f 78/84/23 82/85/23 84/86/23
f 69/87/7 83/83/7 71/88/7
f 84/86/23 70/89/23 72/90/23
f 79/91/24 85/77/24 77/82/24
f 86/80/21 80/92/21 78/84/21
f 1/1/1 2/93/1 7/2/1
f 5/4/1 6/7/1 10/5/1
f 8/3/1 7/2/1 6/7/1
f 9/6/1 10/5/1 4/8/1
f 21/10/1 25/11/1 26/11/1
f 21/12/1 22/12/1 58/13/1
f 23/14/25 24/14/25 60/15/25
f 15/16/3 16/16/3 12/17/3
f 18/18/1 17/18/1 46/19/1
f 23/20/3 19/21/3 20/21/3
f 11/22/26 12/22/26 48/23/26
f 18/24/1 14/25/1 13/25/1
f 27/26/1 28/26/1 50/27/1
f 29/28/27 30/28/27 52/29/27
f 63/30/6 31/31/6 32/31/6
f 43/32/1 44/32/1 54/33/1
f 47/23/7 48/23/7 32/31/7
f 14/34/1 49/27/1 50/27/1
f 15/35/28 51/29/28 52/29/28
f 45/19/9 46/19/9 53/33/9
f 57/13/1 58/13/1 28/26/1
f 59/15/29 60/15/29 30/28/29
f 25/36/1 61/37/1 62/37/1
f 19/38/30 63/30/30 64/30/30
f 43/32/1 68/39/1 67/39/1
f 62/37/12 61/37/12 67/39/12
f 68/39/13 60/15/13 24/14/13
f 23/14/31 59/15/31 67/39/31
f 36/41/9 24/20/9 20/21/9
f 40/42/32 19/21/32 23/20/32
f 33/43/12 12/17/12 16/16/12
f 15/16/33 11/17/33 34/43/33
f 56/45/17 48/23/17 12/22/17
f 11/22/34 47/23/34 55/45/34
f 41/47/17 66/48/17 64/30/17
f 42/47/13 31/31/13 63/30/13
f 43/32/13 53/33/13 52/29/13
f 44/32/17 29/28/17 51/29/17
f 58/13/17 66/48/17 41/47/17
f 42/47/13 65/48/13 57/13/13
f 13/34/17 50/27/17 56/45/17
f 34/46/13 55/45/13 49/27/13
f 13/25/12 33/43/12 37/44/12
f 38/44/9 34/43/9 14/25/9
f 26/11/9 36/41/9 39/42/9
f 40/42/12 35/41/12 25/11/12
f 26/36/13 62/37/13 68/39/13
f 35/40/17 67/39/17 61/37/17
f 28/26/17 41/47/17 56/45/17
f 55/45/13 42/47/13 27/26/13
f 17/18/13 37/49/13 53/33/13
f 54/33/17 38/49/17 18/18/17
f 53/33/13 37/49/13 16/35/13
f 54/33/35 51/29/35 15/35/35
f 41/47/17 32/31/17 48/23/17
f 47/23/13 31/31/13 42/47/13
f 22/12/17 39/50/17 66/48/17
f 65/48/13 40/50/13 21/12/13
f 66/48/17 39/50/17 20/38/17
f 65/48/36 63/30/36 19/38/36
f 43/32/13 30/28/13 60/15/13
f 59/15/17 29/28/17 44/32/17
f 75/51/13 76/94/13 86/52/13
f 71/54/19 72/95/19 70/55/19
f 73/57/20 74/96/20 76/58/20
f 69/60/17 70/97/17 82/61/17
f 83/63/13 77/72/13 78/64/13
f 87/66/17 79/69/17 80/67/17
f 81/62/17 82/61/17 80/67/17
f 83/63/13 84/65/13 72/70/13
f 85/53/13 86/52/13 78/64/13
f 87/66/17 88/68/17 74/73/17
f 87/75/6 73/98/6 75/76/6
f 76/78/21 74/99/21 88/79/21
f 81/81/22 79/91/22 77/82/22
f 78/84/23 80/92/23 82/85/23
f 69/87/7 81/81/7 83/83/7
f 84/86/23 82/85/23 70/89/23
f 79/91/24 87/75/24 85/77/24
f 86/80/21 88/79/21 80/92/21
