# Blender 4.3.1
# www.blender.org
mtllib ShopDoor.mtl
o Cube
v -6.000000 -0.750000 0.000000
v -6.000000 -0.750000 24.000000
v -6.000000 0.750000 0.000000
v -6.000000 0.750000 24.000000
v 6.000000 -0.750000 0.000000
v 6.000000 -0.750000 24.000000
v 6.000000 0.750000 0.000000
v 6.000000 0.750000 24.000000
vn -1.0000 -0.0000 -0.0000
vn -0.0000 1.0000 -0.0000
vn 1.0000 -0.0000 -0.0000
vn -0.0000 -1.0000 -0.0000
vn -0.0000 -0.0000 -1.0000
vn -0.0000 -0.0000 1.0000
vt 0.842105 0.000000
vt 0.894737 0.842105
vt 0.842105 0.842105
vt 0.000000 0.000000
vt 0.421053 0.842105
vt 0.000000 0.842105
vt 0.894737 0.000000
vt 0.947368 0.842105
vt 0.421053 0.000000
vt 1.000000 0.421053
vt 0.947368 -0.000000
vt 1.000000 0.000000
vt 1.000000 0.842105
vt 0.947368 0.421053
vt 1.000000 0.421053
vt 0.947368 0.000000
vt 0.947368 0.421053
vt 0.947368 0.842105
s 0
usemtl Material.001
f 2/1/1 3/2/1 1/3/1
f 4/4/2 7/5/2 3/6/2
f 8/7/3 5/8/3 7/2/3
f 6/9/4 1/3/4 5/5/4
f 7/10/5 1/11/5 3/12/5
f 4/13/6 6/14/6 8/15/6
f 2/1/1 4/7/1 3/2/1
f 4/4/2 8/9/2 7/5/2
f 8/7/3 6/16/3 5/8/3
f 6/9/4 2/1/4 1/3/4
f 7/10/5 5/17/5 1/11/5
f 4/13/6 2/18/6 6/14/6
